<?xml version="1.0" encoding="UTF-8" standalone="no"?>
<!DOCTYPE svg PUBLIC "-//W3C//DTD SVG 1.1//EN" "http://www.w3.org/Graphics/SVG/1.1/DTD/svg11.dtd">
<svg xmlns:dc="http://purl.org/dc/elements/1.1/" xmlns:xl="http://www.w3.org/1999/xlink" version="1.1" xmlns="http://www.w3.org/2000/svg" viewBox="203.5 347.5 693 57" width="693" height="57">
  <defs/>
  <metadata> Produced by OmniGraffle 7.7 
    <dc:date>2018-02-20 02:15:20 +0000</dc:date>
  </metadata>
  <g id="hex-digits" fill-opacity="1" stroke-dasharray="none" stroke="none" stroke-opacity="1" fill="none">
    <title>hex-digits</title>
    <g id="hex-digits: Layer 1">
      <title>Layer 1</title>
      <g id="Graphic_150">
        <path d="M 208 354 L 204 358 L 204 370 L 208 374 L 212 370 L 212 358 Z" fill="#797979"/>
        <path d="M 208 354 L 204 358 L 204 370 L 208 374 L 212 370 L 212 358 Z" stroke="#797979" stroke-linecap="round" stroke-linejoin="round" stroke-width="1"/>
      </g>
      <g id="Graphic_151">
        <path d="M 232 354 L 228 358 L 228 370 L 232 374 L 236 370 L 236 358 Z" fill="#797979"/>
        <path d="M 232 354 L 228 358 L 228 370 L 232 374 L 236 370 L 236 358 Z" stroke="#797979" stroke-linecap="round" stroke-linejoin="round" stroke-width="1"/>
      </g>
      <g id="Graphic_152">
        <path d="M 230 352 L 226 348 L 214 348 L 210 352 L 214 356 L 226 356 Z" fill="#797979"/>
        <path d="M 230 352 L 226 348 L 214 348 L 210 352 L 214 356 L 226 356 Z" stroke="#797979" stroke-linecap="round" stroke-linejoin="round" stroke-width="1"/>
      </g>
      <g id="Graphic_153">
        <path d="M 230 376 L 226 372 L 214 372 L 210 376 L 214 380 L 226 380 Z" stroke="#797979" stroke-linecap="round" stroke-linejoin="round" stroke-width="1"/>
      </g>
      <g id="Graphic_154">
        <path d="M 230 400 L 226 396 L 214 396 L 210 400 L 214 404 L 226 404 Z" fill="#797979"/>
        <path d="M 230 400 L 226 396 L 214 396 L 210 400 L 214 404 L 226 404 Z" stroke="#797979" stroke-linecap="round" stroke-linejoin="round" stroke-width="1"/>
      </g>
      <g id="Graphic_155">
        <path d="M 208 378 L 204 382 L 204 394 L 208 398 L 212 394 L 212 382 Z" fill="#797979"/>
        <path d="M 208 378 L 204 382 L 204 394 L 208 398 L 212 394 L 212 382 Z" stroke="#797979" stroke-linecap="round" stroke-linejoin="round" stroke-width="1"/>
      </g>
      <g id="Graphic_156">
        <path d="M 232 378 L 228 382 L 228 394 L 232 398 L 236 394 L 236 382 Z" fill="#797979"/>
        <path d="M 232 378 L 228 382 L 228 394 L 232 398 L 236 394 L 236 382 Z" stroke="#797979" stroke-linecap="round" stroke-linejoin="round" stroke-width="1"/>
      </g>
      <g id="Graphic_171">
        <path d="M 252 354 L 248 358 L 248 370 L 252 374 L 256 370 L 256 358 Z" stroke="#797979" stroke-linecap="round" stroke-linejoin="round" stroke-width="1"/>
      </g>
      <g id="Graphic_172">
        <path d="M 276 354 L 272 358 L 272 370 L 276 374 L 280 370 L 280 358 Z" fill="#797979"/>
        <path d="M 276 354 L 272 358 L 272 370 L 276 374 L 280 370 L 280 358 Z" stroke="#797979" stroke-linecap="round" stroke-linejoin="round" stroke-width="1"/>
      </g>
      <g id="Graphic_173">
        <path d="M 274 352 L 270 348 L 258 348 L 254 352 L 258 356 L 270 356 Z" stroke="#797979" stroke-linecap="round" stroke-linejoin="round" stroke-width="1"/>
      </g>
      <g id="Graphic_174">
        <path d="M 274 376 L 270 372 L 258 372 L 254 376 L 258 380 L 270 380 Z" stroke="#797979" stroke-linecap="round" stroke-linejoin="round" stroke-width="1"/>
      </g>
      <g id="Graphic_175">
        <path d="M 274 400 L 270 396 L 258 396 L 254 400 L 258 404 L 270 404 Z" stroke="#797979" stroke-linecap="round" stroke-linejoin="round" stroke-width="1"/>
      </g>
      <g id="Graphic_176">
        <path d="M 252 378 L 248 382 L 248 394 L 252 398 L 256 394 L 256 382 Z" stroke="#797979" stroke-linecap="round" stroke-linejoin="round" stroke-width="1"/>
      </g>
      <g id="Graphic_177">
        <path d="M 276 378 L 272 382 L 272 394 L 276 398 L 280 394 L 280 382 Z" fill="#797979"/>
        <path d="M 276 378 L 272 382 L 272 394 L 276 398 L 280 394 L 280 382 Z" stroke="#797979" stroke-linecap="round" stroke-linejoin="round" stroke-width="1"/>
      </g>
      <g id="Graphic_178">
        <path d="M 296 354 L 292 358 L 292 370 L 296 374 L 300 370 L 300 358 Z" stroke="#797979" stroke-linecap="round" stroke-linejoin="round" stroke-width="1"/>
      </g>
      <g id="Graphic_179">
        <path d="M 320 354 L 316 358 L 316 370 L 320 374 L 324 370 L 324 358 Z" fill="#797979"/>
        <path d="M 320 354 L 316 358 L 316 370 L 320 374 L 324 370 L 324 358 Z" stroke="#797979" stroke-linecap="round" stroke-linejoin="round" stroke-width="1"/>
      </g>
      <g id="Graphic_180">
        <path d="M 318 352 L 314 348 L 302 348 L 298 352 L 302 356 L 314 356 Z" fill="#797979"/>
        <path d="M 318 352 L 314 348 L 302 348 L 298 352 L 302 356 L 314 356 Z" stroke="#797979" stroke-linecap="round" stroke-linejoin="round" stroke-width="1"/>
      </g>
      <g id="Graphic_181">
        <path d="M 318 376 L 314 372 L 302 372 L 298 376 L 302 380 L 314 380 Z" fill="#797979"/>
        <path d="M 318 376 L 314 372 L 302 372 L 298 376 L 302 380 L 314 380 Z" stroke="#797979" stroke-linecap="round" stroke-linejoin="round" stroke-width="1"/>
      </g>
      <g id="Graphic_182">
        <path d="M 318 400 L 314 396 L 302 396 L 298 400 L 302 404 L 314 404 Z" fill="#797979"/>
        <path d="M 318 400 L 314 396 L 302 396 L 298 400 L 302 404 L 314 404 Z" stroke="#797979" stroke-linecap="round" stroke-linejoin="round" stroke-width="1"/>
      </g>
      <g id="Graphic_183">
        <path d="M 296 378 L 292 382 L 292 394 L 296 398 L 300 394 L 300 382 Z" fill="#797979"/>
        <path d="M 296 378 L 292 382 L 292 394 L 296 398 L 300 394 L 300 382 Z" stroke="#797979" stroke-linecap="round" stroke-linejoin="round" stroke-width="1"/>
      </g>
      <g id="Graphic_184">
        <path d="M 320 378 L 316 382 L 316 394 L 320 398 L 324 394 L 324 382 Z" stroke="#797979" stroke-linecap="round" stroke-linejoin="round" stroke-width="1"/>
      </g>
      <g id="Graphic_185">
        <path d="M 340 354 L 336 358 L 336 370 L 340 374 L 344 370 L 344 358 Z" stroke="#797979" stroke-linecap="round" stroke-linejoin="round" stroke-width="1"/>
      </g>
      <g id="Graphic_186">
        <path d="M 364 354 L 360 358 L 360 370 L 364 374 L 368 370 L 368 358 Z" fill="#797979"/>
        <path d="M 364 354 L 360 358 L 360 370 L 364 374 L 368 370 L 368 358 Z" stroke="#797979" stroke-linecap="round" stroke-linejoin="round" stroke-width="1"/>
      </g>
      <g id="Graphic_187">
        <path d="M 362 352 L 358 348 L 346 348 L 342 352 L 346 356 L 358 356 Z" fill="#797979"/>
        <path d="M 362 352 L 358 348 L 346 348 L 342 352 L 346 356 L 358 356 Z" stroke="#797979" stroke-linecap="round" stroke-linejoin="round" stroke-width="1"/>
      </g>
      <g id="Graphic_188">
        <path d="M 362 376 L 358 372 L 346 372 L 342 376 L 346 380 L 358 380 Z" fill="#797979"/>
        <path d="M 362 376 L 358 372 L 346 372 L 342 376 L 346 380 L 358 380 Z" stroke="#797979" stroke-linecap="round" stroke-linejoin="round" stroke-width="1"/>
      </g>
      <g id="Graphic_189">
        <path d="M 362 400 L 358 396 L 346 396 L 342 400 L 346 404 L 358 404 Z" fill="#797979"/>
        <path d="M 362 400 L 358 396 L 346 396 L 342 400 L 346 404 L 358 404 Z" stroke="#797979" stroke-linecap="round" stroke-linejoin="round" stroke-width="1"/>
      </g>
      <g id="Graphic_190">
        <path d="M 340 378 L 336 382 L 336 394 L 340 398 L 344 394 L 344 382 Z" stroke="#797979" stroke-linecap="round" stroke-linejoin="round" stroke-width="1"/>
      </g>
      <g id="Graphic_191">
        <path d="M 364 378 L 360 382 L 360 394 L 364 398 L 368 394 L 368 382 Z" fill="#797979"/>
        <path d="M 364 378 L 360 382 L 360 394 L 364 398 L 368 394 L 368 382 Z" stroke="#797979" stroke-linecap="round" stroke-linejoin="round" stroke-width="1"/>
      </g>
      <g id="Graphic_192">
        <path d="M 384 354 L 380 358 L 380 370 L 384 374 L 388 370 L 388 358 Z" fill="#797979"/>
        <path d="M 384 354 L 380 358 L 380 370 L 384 374 L 388 370 L 388 358 Z" stroke="#797979" stroke-linecap="round" stroke-linejoin="round" stroke-width="1"/>
      </g>
      <g id="Graphic_193">
        <path d="M 408 354 L 404 358 L 404 370 L 408 374 L 412 370 L 412 358 Z" fill="#797979"/>
        <path d="M 408 354 L 404 358 L 404 370 L 408 374 L 412 370 L 412 358 Z" stroke="#797979" stroke-linecap="round" stroke-linejoin="round" stroke-width="1"/>
      </g>
      <g id="Graphic_194">
        <path d="M 406 352 L 402 348 L 390 348 L 386 352 L 390 356 L 402 356 Z" stroke="#797979" stroke-linecap="round" stroke-linejoin="round" stroke-width="1"/>
      </g>
      <g id="Graphic_195">
        <path d="M 406 376 L 402 372 L 390 372 L 386 376 L 390 380 L 402 380 Z" fill="#797979"/>
        <path d="M 406 376 L 402 372 L 390 372 L 386 376 L 390 380 L 402 380 Z" stroke="#797979" stroke-linecap="round" stroke-linejoin="round" stroke-width="1"/>
      </g>
      <g id="Graphic_196">
        <path d="M 406 400 L 402 396 L 390 396 L 386 400 L 390 404 L 402 404 Z" stroke="#797979" stroke-linecap="round" stroke-linejoin="round" stroke-width="1"/>
      </g>
      <g id="Graphic_197">
        <path d="M 384 378 L 380 382 L 380 394 L 384 398 L 388 394 L 388 382 Z" stroke="#797979" stroke-linecap="round" stroke-linejoin="round" stroke-width="1"/>
      </g>
      <g id="Graphic_198">
        <path d="M 408 378 L 404 382 L 404 394 L 408 398 L 412 394 L 412 382 Z" fill="#797979"/>
        <path d="M 408 378 L 404 382 L 404 394 L 408 398 L 412 394 L 412 382 Z" stroke="#797979" stroke-linecap="round" stroke-linejoin="round" stroke-width="1"/>
      </g>
      <g id="Graphic_199">
        <path d="M 428 354 L 424 358 L 424 370 L 428 374 L 432 370 L 432 358 Z" fill="#797979"/>
        <path d="M 428 354 L 424 358 L 424 370 L 428 374 L 432 370 L 432 358 Z" stroke="#797979" stroke-linecap="round" stroke-linejoin="round" stroke-width="1"/>
      </g>
      <g id="Graphic_200">
        <path d="M 452 354 L 448 358 L 448 370 L 452 374 L 456 370 L 456 358 Z" stroke="#797979" stroke-linecap="round" stroke-linejoin="round" stroke-width="1"/>
      </g>
      <g id="Graphic_201">
        <path d="M 450 352 L 446 348 L 434 348 L 430 352 L 434 356 L 446 356 Z" fill="#797979"/>
        <path d="M 450 352 L 446 348 L 434 348 L 430 352 L 434 356 L 446 356 Z" stroke="#797979" stroke-linecap="round" stroke-linejoin="round" stroke-width="1"/>
      </g>
      <g id="Graphic_202">
        <path d="M 450 376 L 446 372 L 434 372 L 430 376 L 434 380 L 446 380 Z" fill="#797979"/>
        <path d="M 450 376 L 446 372 L 434 372 L 430 376 L 434 380 L 446 380 Z" stroke="#797979" stroke-linecap="round" stroke-linejoin="round" stroke-width="1"/>
      </g>
      <g id="Graphic_203">
        <path d="M 450 400 L 446 396 L 434 396 L 430 400 L 434 404 L 446 404 Z" fill="#797979"/>
        <path d="M 450 400 L 446 396 L 434 396 L 430 400 L 434 404 L 446 404 Z" stroke="#797979" stroke-linecap="round" stroke-linejoin="round" stroke-width="1"/>
      </g>
      <g id="Graphic_204">
        <path d="M 428 378 L 424 382 L 424 394 L 428 398 L 432 394 L 432 382 Z" stroke="#797979" stroke-linecap="round" stroke-linejoin="round" stroke-width="1"/>
      </g>
      <g id="Graphic_205">
        <path d="M 452 378 L 448 382 L 448 394 L 452 398 L 456 394 L 456 382 Z" fill="#797979"/>
        <path d="M 452 378 L 448 382 L 448 394 L 452 398 L 456 394 L 456 382 Z" stroke="#797979" stroke-linecap="round" stroke-linejoin="round" stroke-width="1"/>
      </g>
      <g id="Graphic_206">
        <path d="M 472 354 L 468 358 L 468 370 L 472 374 L 476 370 L 476 358 Z" fill="#797979"/>
        <path d="M 472 354 L 468 358 L 468 370 L 472 374 L 476 370 L 476 358 Z" stroke="#797979" stroke-linecap="round" stroke-linejoin="round" stroke-width="1"/>
      </g>
      <g id="Graphic_207">
        <path d="M 496 354 L 492 358 L 492 370 L 496 374 L 500 370 L 500 358 Z" stroke="#797979" stroke-linecap="round" stroke-linejoin="round" stroke-width="1"/>
      </g>
      <g id="Graphic_208">
        <path d="M 494 352 L 490 348 L 478 348 L 474 352 L 478 356 L 490 356 Z" fill="#797979"/>
        <path d="M 494 352 L 490 348 L 478 348 L 474 352 L 478 356 L 490 356 Z" stroke="#797979" stroke-linecap="round" stroke-linejoin="round" stroke-width="1"/>
      </g>
      <g id="Graphic_209">
        <path d="M 494 376 L 490 372 L 478 372 L 474 376 L 478 380 L 490 380 Z" fill="#797979"/>
        <path d="M 494 376 L 490 372 L 478 372 L 474 376 L 478 380 L 490 380 Z" stroke="#797979" stroke-linecap="round" stroke-linejoin="round" stroke-width="1"/>
      </g>
      <g id="Graphic_210">
        <path d="M 494 400 L 490 396 L 478 396 L 474 400 L 478 404 L 490 404 Z" fill="#797979"/>
        <path d="M 494 400 L 490 396 L 478 396 L 474 400 L 478 404 L 490 404 Z" stroke="#797979" stroke-linecap="round" stroke-linejoin="round" stroke-width="1"/>
      </g>
      <g id="Graphic_211">
        <path d="M 472 378 L 468 382 L 468 394 L 472 398 L 476 394 L 476 382 Z" fill="#797979"/>
        <path d="M 472 378 L 468 382 L 468 394 L 472 398 L 476 394 L 476 382 Z" stroke="#797979" stroke-linecap="round" stroke-linejoin="round" stroke-width="1"/>
      </g>
      <g id="Graphic_212">
        <path d="M 496 378 L 492 382 L 492 394 L 496 398 L 500 394 L 500 382 Z" fill="#797979"/>
        <path d="M 496 378 L 492 382 L 492 394 L 496 398 L 500 394 L 500 382 Z" stroke="#797979" stroke-linecap="round" stroke-linejoin="round" stroke-width="1"/>
      </g>
      <g id="Graphic_213">
        <path d="M 516 354 L 512 358 L 512 370 L 516 374 L 520 370 L 520 358 Z" stroke="#797979" stroke-linecap="round" stroke-linejoin="round" stroke-width="1"/>
      </g>
      <g id="Graphic_214">
        <path d="M 540 354 L 536 358 L 536 370 L 540 374 L 544 370 L 544 358 Z" fill="#797979"/>
        <path d="M 540 354 L 536 358 L 536 370 L 540 374 L 544 370 L 544 358 Z" stroke="#797979" stroke-linecap="round" stroke-linejoin="round" stroke-width="1"/>
      </g>
      <g id="Graphic_215">
        <path d="M 538 352 L 534 348 L 522 348 L 518 352 L 522 356 L 534 356 Z" fill="#797979"/>
        <path d="M 538 352 L 534 348 L 522 348 L 518 352 L 522 356 L 534 356 Z" stroke="#797979" stroke-linecap="round" stroke-linejoin="round" stroke-width="1"/>
      </g>
      <g id="Graphic_216">
        <path d="M 538 376 L 534 372 L 522 372 L 518 376 L 522 380 L 534 380 Z" stroke="#797979" stroke-linecap="round" stroke-linejoin="round" stroke-width="1"/>
      </g>
      <g id="Graphic_217">
        <path d="M 538 400 L 534 396 L 522 396 L 518 400 L 522 404 L 534 404 Z" stroke="#797979" stroke-linecap="round" stroke-linejoin="round" stroke-width="1"/>
      </g>
      <g id="Graphic_218">
        <path d="M 516 378 L 512 382 L 512 394 L 516 398 L 520 394 L 520 382 Z" stroke="#797979" stroke-linecap="round" stroke-linejoin="round" stroke-width="1"/>
      </g>
      <g id="Graphic_219">
        <path d="M 540 378 L 536 382 L 536 394 L 540 398 L 544 394 L 544 382 Z" fill="#797979"/>
        <path d="M 540 378 L 536 382 L 536 394 L 540 398 L 544 394 L 544 382 Z" stroke="#797979" stroke-linecap="round" stroke-linejoin="round" stroke-width="1"/>
      </g>
      <g id="Graphic_220">
        <path d="M 560 354 L 556 358 L 556 370 L 560 374 L 564 370 L 564 358 Z" fill="#797979"/>
        <path d="M 560 354 L 556 358 L 556 370 L 560 374 L 564 370 L 564 358 Z" stroke="#797979" stroke-linecap="round" stroke-linejoin="round" stroke-width="1"/>
      </g>
      <g id="Graphic_221">
        <path d="M 584 354 L 580 358 L 580 370 L 584 374 L 588 370 L 588 358 Z" fill="#797979"/>
        <path d="M 584 354 L 580 358 L 580 370 L 584 374 L 588 370 L 588 358 Z" stroke="#797979" stroke-linecap="round" stroke-linejoin="round" stroke-width="1"/>
      </g>
      <g id="Graphic_222">
        <path d="M 582 352 L 578 348 L 566 348 L 562 352 L 566 356 L 578 356 Z" fill="#797979"/>
        <path d="M 582 352 L 578 348 L 566 348 L 562 352 L 566 356 L 578 356 Z" stroke="#797979" stroke-linecap="round" stroke-linejoin="round" stroke-width="1"/>
      </g>
      <g id="Graphic_223">
        <path d="M 582 376 L 578 372 L 566 372 L 562 376 L 566 380 L 578 380 Z" fill="#797979"/>
        <path d="M 582 376 L 578 372 L 566 372 L 562 376 L 566 380 L 578 380 Z" stroke="#797979" stroke-linecap="round" stroke-linejoin="round" stroke-width="1"/>
      </g>
      <g id="Graphic_224">
        <path d="M 582 400 L 578 396 L 566 396 L 562 400 L 566 404 L 578 404 Z" fill="#797979"/>
        <path d="M 582 400 L 578 396 L 566 396 L 562 400 L 566 404 L 578 404 Z" stroke="#797979" stroke-linecap="round" stroke-linejoin="round" stroke-width="1"/>
      </g>
      <g id="Graphic_225">
        <path d="M 560 378 L 556 382 L 556 394 L 560 398 L 564 394 L 564 382 Z" fill="#797979"/>
        <path d="M 560 378 L 556 382 L 556 394 L 560 398 L 564 394 L 564 382 Z" stroke="#797979" stroke-linecap="round" stroke-linejoin="round" stroke-width="1"/>
      </g>
      <g id="Graphic_226">
        <path d="M 584 378 L 580 382 L 580 394 L 584 398 L 588 394 L 588 382 Z" fill="#797979"/>
        <path d="M 584 378 L 580 382 L 580 394 L 584 398 L 588 394 L 588 382 Z" stroke="#797979" stroke-linecap="round" stroke-linejoin="round" stroke-width="1"/>
      </g>
      <g id="Graphic_227">
        <path d="M 604 354 L 600 358 L 600 370 L 604 374 L 608 370 L 608 358 Z" fill="#797979"/>
        <path d="M 604 354 L 600 358 L 600 370 L 604 374 L 608 370 L 608 358 Z" stroke="#797979" stroke-linecap="round" stroke-linejoin="round" stroke-width="1"/>
      </g>
      <g id="Graphic_228">
        <path d="M 628 354 L 624 358 L 624 370 L 628 374 L 632 370 L 632 358 Z" fill="#797979"/>
        <path d="M 628 354 L 624 358 L 624 370 L 628 374 L 632 370 L 632 358 Z" stroke="#797979" stroke-linecap="round" stroke-linejoin="round" stroke-width="1"/>
      </g>
      <g id="Graphic_229">
        <path d="M 626 352 L 622 348 L 610 348 L 606 352 L 610 356 L 622 356 Z" fill="#797979"/>
        <path d="M 626 352 L 622 348 L 610 348 L 606 352 L 610 356 L 622 356 Z" stroke="#797979" stroke-linecap="round" stroke-linejoin="round" stroke-width="1"/>
      </g>
      <g id="Graphic_230">
        <path d="M 626 376 L 622 372 L 610 372 L 606 376 L 610 380 L 622 380 Z" fill="#797979"/>
        <path d="M 626 376 L 622 372 L 610 372 L 606 376 L 610 380 L 622 380 Z" stroke="#797979" stroke-linecap="round" stroke-linejoin="round" stroke-width="1"/>
      </g>
      <g id="Graphic_231">
        <path d="M 626 400 L 622 396 L 610 396 L 606 400 L 610 404 L 622 404 Z" fill="#797979"/>
        <path d="M 626 400 L 622 396 L 610 396 L 606 400 L 610 404 L 622 404 Z" stroke="#797979" stroke-linecap="round" stroke-linejoin="round" stroke-width="1"/>
      </g>
      <g id="Graphic_232">
        <path d="M 604 378 L 600 382 L 600 394 L 604 398 L 608 394 L 608 382 Z" stroke="#797979" stroke-linecap="round" stroke-linejoin="round" stroke-width="1"/>
      </g>
      <g id="Graphic_233">
        <path d="M 628 378 L 624 382 L 624 394 L 628 398 L 632 394 L 632 382 Z" fill="#797979"/>
        <path d="M 628 378 L 624 382 L 624 394 L 628 398 L 632 394 L 632 382 Z" stroke="#797979" stroke-linecap="round" stroke-linejoin="round" stroke-width="1"/>
      </g>
      <g id="Graphic_234">
        <path d="M 648 354 L 644 358 L 644 370 L 648 374 L 652 370 L 652 358 Z" fill="#797979"/>
        <path d="M 648 354 L 644 358 L 644 370 L 648 374 L 652 370 L 652 358 Z" stroke="#797979" stroke-linecap="round" stroke-linejoin="round" stroke-width="1"/>
      </g>
      <g id="Graphic_235">
        <path d="M 672 354 L 668 358 L 668 370 L 672 374 L 676 370 L 676 358 Z" fill="#797979"/>
        <path d="M 672 354 L 668 358 L 668 370 L 672 374 L 676 370 L 676 358 Z" stroke="#797979" stroke-linecap="round" stroke-linejoin="round" stroke-width="1"/>
      </g>
      <g id="Graphic_236">
        <path d="M 670 352 L 666 348 L 654 348 L 650 352 L 654 356 L 666 356 Z" fill="#797979"/>
        <path d="M 670 352 L 666 348 L 654 348 L 650 352 L 654 356 L 666 356 Z" stroke="#797979" stroke-linecap="round" stroke-linejoin="round" stroke-width="1"/>
      </g>
      <g id="Graphic_237">
        <path d="M 670 376 L 666 372 L 654 372 L 650 376 L 654 380 L 666 380 Z" fill="#797979"/>
        <path d="M 670 376 L 666 372 L 654 372 L 650 376 L 654 380 L 666 380 Z" stroke="#797979" stroke-linecap="round" stroke-linejoin="round" stroke-width="1"/>
      </g>
      <g id="Graphic_238">
        <path d="M 670 400 L 666 396 L 654 396 L 650 400 L 654 404 L 666 404 Z" stroke="#797979" stroke-linecap="round" stroke-linejoin="round" stroke-width="1"/>
      </g>
      <g id="Graphic_239">
        <path d="M 648 378 L 644 382 L 644 394 L 648 398 L 652 394 L 652 382 Z" fill="#797979"/>
        <path d="M 648 378 L 644 382 L 644 394 L 648 398 L 652 394 L 652 382 Z" stroke="#797979" stroke-linecap="round" stroke-linejoin="round" stroke-width="1"/>
      </g>
      <g id="Graphic_240">
        <path d="M 672 378 L 668 382 L 668 394 L 672 398 L 676 394 L 676 382 Z" fill="#797979"/>
        <path d="M 672 378 L 668 382 L 668 394 L 672 398 L 676 394 L 676 382 Z" stroke="#797979" stroke-linecap="round" stroke-linejoin="round" stroke-width="1"/>
      </g>
      <g id="Graphic_241">
        <path d="M 692 354 L 688 358 L 688 370 L 692 374 L 696 370 L 696 358 Z" fill="#797979"/>
        <path d="M 692 354 L 688 358 L 688 370 L 692 374 L 696 370 L 696 358 Z" stroke="#797979" stroke-linecap="round" stroke-linejoin="round" stroke-width="1"/>
      </g>
      <g id="Graphic_242">
        <path d="M 716 354 L 712 358 L 712 370 L 716 374 L 720 370 L 720 358 Z" stroke="#797979" stroke-linecap="round" stroke-linejoin="round" stroke-width="1"/>
      </g>
      <g id="Graphic_243">
        <path d="M 714 352 L 710 348 L 698 348 L 694 352 L 698 356 L 710 356 Z" stroke="#797979" stroke-linecap="round" stroke-linejoin="round" stroke-width="1"/>
      </g>
      <g id="Graphic_244">
        <path d="M 714 376 L 710 372 L 698 372 L 694 376 L 698 380 L 710 380 Z" fill="#797979"/>
        <path d="M 714 376 L 710 372 L 698 372 L 694 376 L 698 380 L 710 380 Z" stroke="#797979" stroke-linecap="round" stroke-linejoin="round" stroke-width="1"/>
      </g>
      <g id="Graphic_245">
        <path d="M 714 400 L 710 396 L 698 396 L 694 400 L 698 404 L 710 404 Z" fill="#797979"/>
        <path d="M 714 400 L 710 396 L 698 396 L 694 400 L 698 404 L 710 404 Z" stroke="#797979" stroke-linecap="round" stroke-linejoin="round" stroke-width="1"/>
      </g>
      <g id="Graphic_246">
        <path d="M 692 378 L 688 382 L 688 394 L 692 398 L 696 394 L 696 382 Z" fill="#797979"/>
        <path d="M 692 378 L 688 382 L 688 394 L 692 398 L 696 394 L 696 382 Z" stroke="#797979" stroke-linecap="round" stroke-linejoin="round" stroke-width="1"/>
      </g>
      <g id="Graphic_247">
        <path d="M 716 378 L 712 382 L 712 394 L 716 398 L 720 394 L 720 382 Z" fill="#797979"/>
        <path d="M 716 378 L 712 382 L 712 394 L 716 398 L 720 394 L 720 382 Z" stroke="#797979" stroke-linecap="round" stroke-linejoin="round" stroke-width="1"/>
      </g>
      <g id="Graphic_248">
        <path d="M 736 354 L 732 358 L 732 370 L 736 374 L 740 370 L 740 358 Z" fill="#797979"/>
        <path d="M 736 354 L 732 358 L 732 370 L 736 374 L 740 370 L 740 358 Z" stroke="#797979" stroke-linecap="round" stroke-linejoin="round" stroke-width="1"/>
      </g>
      <g id="Graphic_249">
        <path d="M 760 354 L 756 358 L 756 370 L 760 374 L 764 370 L 764 358 Z" stroke="#797979" stroke-linecap="round" stroke-linejoin="round" stroke-width="1"/>
      </g>
      <g id="Graphic_250">
        <path d="M 758 352 L 754 348 L 742 348 L 738 352 L 742 356 L 754 356 Z" fill="#797979"/>
        <path d="M 758 352 L 754 348 L 742 348 L 738 352 L 742 356 L 754 356 Z" stroke="#797979" stroke-linecap="round" stroke-linejoin="round" stroke-width="1"/>
      </g>
      <g id="Graphic_251">
        <path d="M 758 376 L 754 372 L 742 372 L 738 376 L 742 380 L 754 380 Z" stroke="#797979" stroke-linecap="round" stroke-linejoin="round" stroke-width="1"/>
      </g>
      <g id="Graphic_252">
        <path d="M 758 400 L 754 396 L 742 396 L 738 400 L 742 404 L 754 404 Z" fill="#797979"/>
        <path d="M 758 400 L 754 396 L 742 396 L 738 400 L 742 404 L 754 404 Z" stroke="#797979" stroke-linecap="round" stroke-linejoin="round" stroke-width="1"/>
      </g>
      <g id="Graphic_253">
        <path d="M 736 378 L 732 382 L 732 394 L 736 398 L 740 394 L 740 382 Z" fill="#797979"/>
        <path d="M 736 378 L 732 382 L 732 394 L 736 398 L 740 394 L 740 382 Z" stroke="#797979" stroke-linecap="round" stroke-linejoin="round" stroke-width="1"/>
      </g>
      <g id="Graphic_254">
        <path d="M 760 378 L 756 382 L 756 394 L 760 398 L 764 394 L 764 382 Z" stroke="#797979" stroke-linecap="round" stroke-linejoin="round" stroke-width="1"/>
      </g>
      <g id="Graphic_255">
        <path d="M 780 354 L 776 358 L 776 370 L 780 374 L 784 370 L 784 358 Z" stroke="#797979" stroke-linecap="round" stroke-linejoin="round" stroke-width="1"/>
      </g>
      <g id="Graphic_256">
        <path d="M 804 354 L 800 358 L 800 370 L 804 374 L 808 370 L 808 358 Z" fill="#797979"/>
        <path d="M 804 354 L 800 358 L 800 370 L 804 374 L 808 370 L 808 358 Z" stroke="#797979" stroke-linecap="round" stroke-linejoin="round" stroke-width="1"/>
      </g>
      <g id="Graphic_257">
        <path d="M 802 352 L 798 348 L 786 348 L 782 352 L 786 356 L 798 356 Z" stroke="#797979" stroke-linecap="round" stroke-linejoin="round" stroke-width="1"/>
      </g>
      <g id="Graphic_258">
        <path d="M 802 376 L 798 372 L 786 372 L 782 376 L 786 380 L 798 380 Z" fill="#797979"/>
        <path d="M 802 376 L 798 372 L 786 372 L 782 376 L 786 380 L 798 380 Z" stroke="#797979" stroke-linecap="round" stroke-linejoin="round" stroke-width="1"/>
      </g>
      <g id="Graphic_259">
        <path d="M 802 400 L 798 396 L 786 396 L 782 400 L 786 404 L 798 404 Z" fill="#797979"/>
        <path d="M 802 400 L 798 396 L 786 396 L 782 400 L 786 404 L 798 404 Z" stroke="#797979" stroke-linecap="round" stroke-linejoin="round" stroke-width="1"/>
      </g>
      <g id="Graphic_260">
        <path d="M 780 378 L 776 382 L 776 394 L 780 398 L 784 394 L 784 382 Z" fill="#797979"/>
        <path d="M 780 378 L 776 382 L 776 394 L 780 398 L 784 394 L 784 382 Z" stroke="#797979" stroke-linecap="round" stroke-linejoin="round" stroke-width="1"/>
      </g>
      <g id="Graphic_261">
        <path d="M 804 378 L 800 382 L 800 394 L 804 398 L 808 394 L 808 382 Z" fill="#797979"/>
        <path d="M 804 378 L 800 382 L 800 394 L 804 398 L 808 394 L 808 382 Z" stroke="#797979" stroke-linecap="round" stroke-linejoin="round" stroke-width="1"/>
      </g>
      <g id="Graphic_262">
        <path d="M 824 354 L 820 358 L 820 370 L 824 374 L 828 370 L 828 358 Z" fill="#797979"/>
        <path d="M 824 354 L 820 358 L 820 370 L 824 374 L 828 370 L 828 358 Z" stroke="#797979" stroke-linecap="round" stroke-linejoin="round" stroke-width="1"/>
      </g>
      <g id="Graphic_263">
        <path d="M 848 354 L 844 358 L 844 370 L 848 374 L 852 370 L 852 358 Z" stroke="#797979" stroke-linecap="round" stroke-linejoin="round" stroke-width="1"/>
      </g>
      <g id="Graphic_264">
        <path d="M 846 352 L 842 348 L 830 348 L 826 352 L 830 356 L 842 356 Z" fill="#797979"/>
        <path d="M 846 352 L 842 348 L 830 348 L 826 352 L 830 356 L 842 356 Z" stroke="#797979" stroke-linecap="round" stroke-linejoin="round" stroke-width="1"/>
      </g>
      <g id="Graphic_265">
        <path d="M 846 376 L 842 372 L 830 372 L 826 376 L 830 380 L 842 380 Z" fill="#797979"/>
        <path d="M 846 376 L 842 372 L 830 372 L 826 376 L 830 380 L 842 380 Z" stroke="#797979" stroke-linecap="round" stroke-linejoin="round" stroke-width="1"/>
      </g>
      <g id="Graphic_266">
        <path d="M 846 400 L 842 396 L 830 396 L 826 400 L 830 404 L 842 404 Z" fill="#797979"/>
        <path d="M 846 400 L 842 396 L 830 396 L 826 400 L 830 404 L 842 404 Z" stroke="#797979" stroke-linecap="round" stroke-linejoin="round" stroke-width="1"/>
      </g>
      <g id="Graphic_267">
        <path d="M 824 378 L 820 382 L 820 394 L 824 398 L 828 394 L 828 382 Z" fill="#797979"/>
        <path d="M 824 378 L 820 382 L 820 394 L 824 398 L 828 394 L 828 382 Z" stroke="#797979" stroke-linecap="round" stroke-linejoin="round" stroke-width="1"/>
      </g>
      <g id="Graphic_268">
        <path d="M 848 378 L 844 382 L 844 394 L 848 398 L 852 394 L 852 382 Z" stroke="#797979" stroke-linecap="round" stroke-linejoin="round" stroke-width="1"/>
      </g>
      <g id="Graphic_269">
        <path d="M 868 354 L 864 358 L 864 370 L 868 374 L 872 370 L 872 358 Z" fill="#797979"/>
        <path d="M 868 354 L 864 358 L 864 370 L 868 374 L 872 370 L 872 358 Z" stroke="#797979" stroke-linecap="round" stroke-linejoin="round" stroke-width="1"/>
      </g>
      <g id="Graphic_270">
        <path d="M 892 354 L 888 358 L 888 370 L 892 374 L 896 370 L 896 358 Z" stroke="#797979" stroke-linecap="round" stroke-linejoin="round" stroke-width="1"/>
      </g>
      <g id="Graphic_271">
        <path d="M 890 352 L 886 348 L 874 348 L 870 352 L 874 356 L 886 356 Z" fill="#797979"/>
        <path d="M 890 352 L 886 348 L 874 348 L 870 352 L 874 356 L 886 356 Z" stroke="#797979" stroke-linecap="round" stroke-linejoin="round" stroke-width="1"/>
      </g>
      <g id="Graphic_272">
        <path d="M 890 376 L 886 372 L 874 372 L 870 376 L 874 380 L 886 380 Z" fill="#797979"/>
        <path d="M 890 376 L 886 372 L 874 372 L 870 376 L 874 380 L 886 380 Z" stroke="#797979" stroke-linecap="round" stroke-linejoin="round" stroke-width="1"/>
      </g>
      <g id="Graphic_273">
        <path d="M 890 400 L 886 396 L 874 396 L 870 400 L 874 404 L 886 404 Z" stroke="#797979" stroke-linecap="round" stroke-linejoin="round" stroke-width="1"/>
      </g>
      <g id="Graphic_274">
        <path d="M 868 378 L 864 382 L 864 394 L 868 398 L 872 394 L 872 382 Z" fill="#797979"/>
        <path d="M 868 378 L 864 382 L 864 394 L 868 398 L 872 394 L 872 382 Z" stroke="#797979" stroke-linecap="round" stroke-linejoin="round" stroke-width="1"/>
      </g>
      <g id="Graphic_275">
        <path d="M 892 378 L 888 382 L 888 394 L 892 398 L 896 394 L 896 382 Z" stroke="#797979" stroke-linecap="round" stroke-linejoin="round" stroke-width="1"/>
      </g>
    </g>
  </g>
</svg>
